<svg xmlns="http://www.w3.org/2000/svg" viewBox="0 0 94.59 89.57"><defs><style>.cls-1,.cls-4{fill:#faca7d;}.cls-2{fill:#d58f73;}.cls-3{fill:#847237;}.cls-4{fill-rule:evenodd;}.cls-5,.cls-6{fill:none;stroke:#9eb0a4;stroke-width:1.54px;}.cls-5{stroke-linecap:round;stroke-linejoin:round;}.cls-6{stroke-miterlimit:10;}.cls-7{fill:#9eb0a4;}</style></defs><g id="圖層_2" data-name="圖層 2"><g id="圖層_1-2" data-name="圖層 1"><polygon class="cls-1" points="22.32 33.07 28.61 0 22.42 0.53 17.53 28.56 22.32 33.07"/><polygon class="cls-1" points="22.32 33.07 47.97 42.98 47.97 61.15 24.74 49.05 22.32 33.07"/><polygon class="cls-2" points="73.62 33.07 47.96 42.98 47.96 61.15 71.19 49.05 73.62 33.07"/><polyline class="cls-2" points="28.61 0 57.55 0.94 51.81 24.24 22.32 33.07"/><polygon class="cls-3" points="73.52 33.07 47.96 42.98 22.32 33.07 51.81 24.24 73.52 33.07"/><polygon class="cls-1" points="49.13 12.59 52.64 19.7 60.48 20.84 54.81 26.37 56.15 34.18 49.13 30.49 42.12 34.18 43.46 26.37 37.78 20.84 45.63 19.7 49.13 12.59"/><polygon class="cls-4" points="61.15 12.1 67.05 2 69.74 3.75 62.63 13.46 61.15 12.1"/><polygon class="cls-4" points="64.79 16.46 76.45 9.45 78.26 12.75 65.56 18.67 64.79 16.46"/><polygon class="cls-4" points="66.56 22.06 77.86 21.75 77.8 25.51 66.13 24.36 66.56 22.06"/><line class="cls-5" x1="50.24" y1="84.06" x2="68.22" y2="84.06"/><rect class="cls-6" x="2.69" y="64.79" width="14.37" height="10.3" rx="2.23"/><line class="cls-5" x1="2.69" y1="70.1" x2="13.76" y2="70.1"/><line class="cls-5" x1="0.77" y1="78.32" x2="18.68" y2="78.32"/><line class="cls-5" x1="9.3" y1="75.09" x2="9.3" y2="84.16"/><path class="cls-5" d="M32.09,62.94a3.09,3.09,0,0,1-1.53,2.84"/><path class="cls-5" d="M22.52,66.94a4.93,4.93,0,0,1-.38,3.46"/><polyline class="cls-5" points="24.6 66.78 39.81 66.78 39.81 70.4"/><path class="cls-5" d="M27.52,69.78s-.39,5.3-2.62,7.69c0,0,8.84,2.3,11.92,7.07"/><path class="cls-5" d="M34,70.09s.69,5.53-1.31,8.22"/><path class="cls-5" d="M29.28,81.54a22.48,22.48,0,0,1-4.91,2.38"/><line class="cls-5" x1="23.44" y1="72.24" x2="37.97" y2="72.24"/><line class="cls-5" x1="73.3" y1="66.56" x2="93.82" y2="66.56"/><line class="cls-5" x1="82.98" y1="73.48" x2="93.82" y2="73.48"/><line class="cls-5" x1="50.24" y1="65.21" x2="68.22" y2="65.21"/><line class="cls-5" x1="55.85" y1="66.32" x2="55.85" y2="81.06"/><line class="cls-5" x1="61.92" y1="66.32" x2="61.92" y2="83.82"/><polyline class="cls-5" points="53.7 70.71 50.7 70.71 50.7 76.94 55.85 76.94"/><polyline class="cls-5" points="64.38 76.94 67.38 76.94 67.38 70.71 62.23 70.71"/><path class="cls-5" d="M75.6,63.1a2.64,2.64,0,0,1,1.62,2.62"/><polyline class="cls-5" points="73.99 69.87 79.98 69.87 74.06 74.4 79.98 74.4"/><polyline class="cls-5" points="73.83 84.55 73.83 77.25 80.29 77.25 80.29 84.55 76.22 84.55"/><polyline class="cls-5" points="86.05 63.56 88.4 65.91 90.7 63.6"/><line class="cls-5" x1="83.27" y1="70.33" x2="85.61" y2="72.67"/><line class="cls-5" x1="93.2" y1="70.33" x2="90.85" y2="72.67"/><line class="cls-5" x1="86.36" y1="66.56" x2="86.36" y2="72.56"/><line class="cls-5" x1="90.2" y1="66.56" x2="90.2" y2="72.56"/><rect class="cls-5" x="83.52" y="76.02" width="9.84" height="8.84"/><line class="cls-5" x1="83.52" y1="80.7" x2="90.97" y2="80.01"/><path class="cls-7" d="M42.1,82.73h4.28v3s.11,2.83-2.17,3.87l-1-.8a2.84,2.84,0,0,0,.67-2.66h-2Z"/></g></g></svg>