<svg xmlns="http://www.w3.org/2000/svg" viewBox="0 0 227.16 85.66"><defs><style>.cls-1,.cls-4{fill:#f2c57c;}.cls-2{fill:#cf8b71;}.cls-3{fill:#867652;}.cls-4{fill-rule:evenodd;}.cls-5,.cls-6{fill:none;stroke:#9eb0a4;stroke-width:2.14px;}.cls-5{stroke-linecap:round;stroke-linejoin:round;}.cls-6{stroke-miterlimit:10;}.cls-7{fill:#9eb0a4;}</style></defs><g id="圖層_2" data-name="圖層 2"><g id="圖層_1-2" data-name="圖層 1"><polygon class="cls-1" points="6.49 44.82 15.03 0 6.64 0.72 0 38.71 6.49 44.82"/><polygon class="cls-1" points="6.49 44.82 41.27 58.26 41.27 82.88 9.78 66.48 6.49 44.82"/><polygon class="cls-2" points="76.03 44.82 41.26 58.26 41.26 82.88 72.74 66.48 76.03 44.82"/><polyline class="cls-2" points="15.03 0 54.24 1.27 46.48 32.85 6.49 44.82"/><polygon class="cls-3" points="75.89 44.82 41.26 58.26 6.49 44.82 46.48 32.85 75.89 44.82"/><polygon class="cls-1" points="42.84 17.06 47.6 26.7 58.23 28.24 50.53 35.74 52.35 46.33 42.84 41.33 33.33 46.33 35.15 35.74 27.46 28.24 38.09 26.7 42.84 17.06"/><polygon class="cls-4" points="59.13 16.4 67.12 2.71 70.78 5.08 61.14 18.24 59.13 16.4"/><polygon class="cls-4" points="64.07 22.31 79.86 12.81 82.31 17.28 65.11 25.31 64.07 22.31"/><polygon class="cls-4" points="66.46 29.89 81.78 29.48 81.7 34.58 65.88 33.02 66.46 29.89"/><line class="cls-5" x1="165.53" y1="36.15" x2="190.52" y2="36.15"/><rect class="cls-6" x="99.45" y="9.38" width="19.97" height="14.31" rx="2.23"/><line class="cls-5" x1="99.45" y1="16.75" x2="114.84" y2="16.75"/><line class="cls-5" x1="96.78" y1="28.18" x2="121.67" y2="28.18"/><line class="cls-5" x1="108.64" y1="23.69" x2="108.64" y2="36.3"/><path class="cls-5" d="M140.32,6.8a4.35,4.35,0,0,1-2.14,4"/><path class="cls-5" d="M127,12.36a6.82,6.82,0,0,1-.53,4.8"/><polyline class="cls-5" points="129.9 12.14 151.04 12.14 151.04 17.16"/><path class="cls-5" d="M134,16.31s-.53,7.37-3.63,10.68c0,0,12.29,3.21,16.56,9.83"/><path class="cls-5" d="M143,16.74s1,7.69-1.82,11.43"/><path class="cls-5" d="M136.41,32.65A31.75,31.75,0,0,1,129.58,36"/><line class="cls-5" x1="128.29" y1="19.73" x2="148.48" y2="19.73"/><line class="cls-5" x1="197.57" y1="11.84" x2="226.09" y2="11.84"/><line class="cls-5" x1="211.03" y1="21.45" x2="226.09" y2="21.45"/><line class="cls-5" x1="165.53" y1="9.96" x2="190.52" y2="9.96"/><line class="cls-5" x1="173.32" y1="11.49" x2="173.32" y2="31.98"/><line class="cls-5" x1="181.76" y1="11.49" x2="181.76" y2="35.83"/><polyline class="cls-5" points="170.33 17.6 166.17 17.6 166.17 26.25 173.32 26.25"/><polyline class="cls-5" points="185.18 26.25 189.34 26.25 189.34 17.6 182.19 17.6"/><path class="cls-5" d="M200.77,7s2.14.64,2.25,3.63"/><polyline class="cls-5" points="198.53 16.43 206.86 16.43 198.64 22.73 206.86 22.73"/><polyline class="cls-5" points="198.32 36.83 198.32 26.68 207.29 26.68 207.29 36.83 201.63 36.83"/><polyline class="cls-5" points="215.3 7.67 218.56 10.93 221.76 7.72"/><line class="cls-5" x1="211.43" y1="17.07" x2="214.68" y2="20.33"/><line class="cls-5" x1="225.23" y1="17.07" x2="221.97" y2="20.33"/><line class="cls-5" x1="215.73" y1="11.84" x2="215.73" y2="20.17"/><line class="cls-5" x1="221.07" y1="11.84" x2="221.07" y2="20.17"/><rect class="cls-5" x="211.77" y="24.97" width="13.67" height="12.28"/><line class="cls-5" x1="211.77" y1="31.49" x2="222.13" y2="30.53"/><path class="cls-7" d="M154.22,34.3h5.95v4.13s.15,3.94-3,5.38l-1.32-1.11s1.7-1.87.93-3.69h-2.83Z"/><path class="cls-7" d="M101.83,63.23h-2L106.52,47h2.14l6.13,16.21h-2.28l-1.68-4.46h-7.16Zm2.48-6.07h5.89l-2.84-7.53Z"/><path class="cls-7" d="M118.6,63.23h-1.95V51.57h1.95v2a5.54,5.54,0,0,1,1.2-1.41,4.37,4.37,0,0,1,1.21-.7,4.17,4.17,0,0,1,1.41-.23,4.26,4.26,0,0,1,2,.45A3.13,3.13,0,0,1,125.73,53a6.07,6.07,0,0,1,.48,2.79v7.43h-1.95v-6.6a8.17,8.17,0,0,0-.21-2.22,1.79,1.79,0,0,0-.81-1,2.43,2.43,0,0,0-1.31-.37,3,3,0,0,0-1.63.5,3.68,3.68,0,0,0-1.24,1.4,5.75,5.75,0,0,0-.46,2.58Z"/><path class="cls-7" d="M136.27,61.58v1.63a10,10,0,0,1-2.17.35,4.34,4.34,0,0,1-2-.44,3,3,0,0,1-1.33-1.27,5.94,5.94,0,0,1-.45-2.67v-6h-2V51.57h2V48.81h1.94v2.76h3.4v1.61h-3.4v5.45a6.52,6.52,0,0,0,.24,2.15,1.66,1.66,0,0,0,.76.88,2.49,2.49,0,0,0,1.23.29A6.2,6.2,0,0,0,136.27,61.58Z"/><path class="cls-7" d="M143.57,63.56a5.45,5.45,0,0,1-3.9-1.55,6.12,6.12,0,0,1-1.61-4.62,6.08,6.08,0,0,1,1.61-4.6,5.68,5.68,0,0,1,7.8,0,6.11,6.11,0,0,1,1.61,4.6A6.16,6.16,0,0,1,147.47,62,5.45,5.45,0,0,1,143.57,63.56Zm0-1.61a3,3,0,0,0,2.53-1.25,5.31,5.31,0,0,0,1-3.31,5.25,5.25,0,0,0-1-3.29,3.19,3.19,0,0,0-5.06,0,5.31,5.31,0,0,0-.95,3.29A5.37,5.37,0,0,0,141,60.7,3,3,0,0,0,143.57,62Z"/><path class="cls-7" d="M153.54,63.23h-1.95V51.57h1.95v2a5.54,5.54,0,0,1,1.2-1.41,4.37,4.37,0,0,1,1.21-.7,4.17,4.17,0,0,1,1.41-.23,4.26,4.26,0,0,1,2,.45A3.13,3.13,0,0,1,160.67,53a6.07,6.07,0,0,1,.48,2.79v7.43h-2v-6.6a8.17,8.17,0,0,0-.21-2.22,1.79,1.79,0,0,0-.81-1,2.43,2.43,0,0,0-1.31-.37,3,3,0,0,0-1.63.5,3.68,3.68,0,0,0-1.24,1.4,5.75,5.75,0,0,0-.46,2.58Z"/><path class="cls-7" d="M164.07,49V47h2V49Zm0,2.6h2V63.23h-2Z"/><path class="cls-7" d="M174.05,63.56a5.45,5.45,0,0,1-3.9-1.55,6.13,6.13,0,0,1-1.62-4.62,6.08,6.08,0,0,1,1.62-4.6,5.67,5.67,0,0,1,7.79,0,6.08,6.08,0,0,1,1.62,4.6A6.13,6.13,0,0,1,177.94,62,5.41,5.41,0,0,1,174.05,63.56Zm0-1.61a3.05,3.05,0,0,0,2.53-1.25,5.37,5.37,0,0,0,.95-3.31,5.31,5.31,0,0,0-.95-3.29,3.19,3.19,0,0,0-5.06,0,5.25,5.25,0,0,0-1,3.29,5.31,5.31,0,0,0,1,3.31A3,3,0,0,0,174.05,62Z"/><path class="cls-7" d="M102.88,85.66h-1.95V69.45h1.95v2A5,5,0,0,1,104,70a4.1,4.1,0,0,1,1.24-.66,4.54,4.54,0,0,1,1.42-.23,4.35,4.35,0,0,1,2.45.73A4.67,4.67,0,0,1,110.85,72a8.17,8.17,0,0,1,.61,3.24,7.36,7.36,0,0,1-1.27,4.42,4.2,4.2,0,0,1-3.59,1.76,4.62,4.62,0,0,1-1.41-.21,3.69,3.69,0,0,1-1.17-.64,6,6,0,0,1-1.14-1.51Zm0-10.37a5.67,5.67,0,0,0,.86,3.26,2.74,2.74,0,0,0,2.41,1.28,3,3,0,0,0,2.36-1.13,5.16,5.16,0,0,0,.94-3.38c0-1.75-.33-3-1-3.64a3.1,3.1,0,0,0-2.27-1,3,3,0,0,0-1.72.56,3.27,3.27,0,0,0-1.19,1.66A6.93,6.93,0,0,0,102.88,75.29Z"/><path class="cls-7" d="M121.17,81.12a5.5,5.5,0,0,1-.3-1.62,7,7,0,0,1-2.18,1.6,4.87,4.87,0,0,1-1.73.34,3.53,3.53,0,0,1-2.39-.85,3.18,3.18,0,0,1,.41-5A14.71,14.71,0,0,1,119.82,74l1.05-.2V72.52a1.62,1.62,0,0,0-.72-1.51,3.35,3.35,0,0,0-1.74-.43,3,3,0,0,0-1.89.53,1.54,1.54,0,0,0-.68,1.24v.17h-2.11v-.16a2.6,2.6,0,0,1,.65-1.59,4,4,0,0,1,1.74-1.24,6.88,6.88,0,0,1,4.68,0,3.23,3.23,0,0,1,1.53,1.07,4.66,4.66,0,0,1,.49,2.53v4.54c0,.49,0,1,0,1.56a7.83,7.83,0,0,0,.38,1.91Zm-.3-5.9-.59.15a11.56,11.56,0,0,0-3.77,1.37,1.91,1.91,0,0,0-.82,1.54,1.62,1.62,0,0,0,.24.86,1.58,1.58,0,0,0,.72.62,2.24,2.24,0,0,0,1,.22,3,3,0,0,0,1.59-.48,3.26,3.26,0,0,0,1.23-1.27,3.76,3.76,0,0,0,.44-1.84Z"/><path class="cls-7" d="M127.76,81.12h-2V69.45h2v2a5.92,5.92,0,0,1,1.2-1.41,4.1,4.1,0,0,1,1.21-.69,3.93,3.93,0,0,1,1.41-.24,4.26,4.26,0,0,1,2,.45,3.18,3.18,0,0,1,1.35,1.32,6.09,6.09,0,0,1,.48,2.8v7.43h-2v-6.6a8.08,8.08,0,0,0-.21-2.22,1.84,1.84,0,0,0-.81-1,2.52,2.52,0,0,0-1.31-.37,3,3,0,0,0-1.63.5,3.71,3.71,0,0,0-1.24,1.41,5.7,5.7,0,0,0-.46,2.57Z"/><path class="cls-7" d="M138.3,66.85V64.9h1.94v1.95Zm0,2.6h1.94V81.12H138.3Z"/><path class="cls-7" d="M145.27,81.12h-2V69.45h2v2a5.92,5.92,0,0,1,1.2-1.41,4.23,4.23,0,0,1,1.21-.69,3.93,3.93,0,0,1,1.41-.24,4.23,4.23,0,0,1,2,.45,3.18,3.18,0,0,1,1.35,1.32,6.09,6.09,0,0,1,.48,2.8v7.43h-1.94v-6.6a8.08,8.08,0,0,0-.21-2.22,1.81,1.81,0,0,0-.82-1,2.52,2.52,0,0,0-1.31-.37,2.94,2.94,0,0,0-1.62.5,3.63,3.63,0,0,0-1.24,1.41,5.56,5.56,0,0,0-.47,2.57Z"/><path class="cls-7" d="M155.81,66.85V64.9h1.95v1.95Zm0,2.6h1.95V81.12h-1.95Z"/><path class="cls-7" d="M169.73,85.66h-1.95V69.45h1.95v2A5.12,5.12,0,0,1,170.87,70a4.22,4.22,0,0,1,1.24-.66,4.6,4.6,0,0,1,1.43-.23,4.32,4.32,0,0,1,2.44.73A4.69,4.69,0,0,1,177.7,72a8.17,8.17,0,0,1,.61,3.24A7.36,7.36,0,0,1,177,79.68a4.19,4.19,0,0,1-3.59,1.76,4.61,4.61,0,0,1-1.4-.21,3.63,3.63,0,0,1-1.18-.64,5.78,5.78,0,0,1-1.13-1.51Zm0-10.37a5.75,5.75,0,0,0,.85,3.26A2.75,2.75,0,0,0,173,79.83a3,3,0,0,0,2.37-1.13,5.22,5.22,0,0,0,.94-3.38,5.18,5.18,0,0,0-1-3.64,3.08,3.08,0,0,0-2.26-1,2.94,2.94,0,0,0-1.72.56,3.34,3.34,0,0,0-1.2,1.66A7.17,7.17,0,0,0,169.73,75.29Z"/><path class="cls-7" d="M182.77,81.12h-2V69.45h2v2a4.9,4.9,0,0,1,1-1.38,4.38,4.38,0,0,1,1.21-.74,3.56,3.56,0,0,1,1.31-.26,2.82,2.82,0,0,1,1,.18v2a3.35,3.35,0,0,0-1.46-.33,3.11,3.11,0,0,0-2.13,1,4.54,4.54,0,0,0-1,3.41Z"/><path class="cls-7" d="M196.71,78.12h1.94v.1A2.61,2.61,0,0,1,198,79.8,3.84,3.84,0,0,1,196.41,81a6.07,6.07,0,0,1-2.34.42,5,5,0,0,1-4.1-1.72,6.54,6.54,0,0,1-1.45-4.36,6.61,6.61,0,0,1,1.53-4.47A5,5,0,0,1,194,69.12a5.07,5.07,0,0,1,2.41.57,4,4,0,0,1,1.7,1.8,7.47,7.47,0,0,1,.63,3.39v.65h-8.29a4.69,4.69,0,0,0,1,3.09,3.43,3.43,0,0,0,2.79,1.21,2.9,2.9,0,0,0,1.88-.5,1.44,1.44,0,0,0,.59-1.1Zm-6.15-4.06h6.31v-.22a3.42,3.42,0,0,0-.4-1.6,2.6,2.6,0,0,0-1.08-1.14,3.44,3.44,0,0,0-1.61-.37,2.87,2.87,0,0,0-2,.88A4.36,4.36,0,0,0,190.56,74.06Z"/><path class="cls-7" d="M200.69,78h1.94v0a1.59,1.59,0,0,0,.57,1.25,3,3,0,0,0,1.94.5,3,3,0,0,0,2-.59,1.72,1.72,0,0,0,.75-1.38c0-.72-.49-1.23-1.46-1.53l-1-.3-.66-.21-1.34-.42c-1.54-.56-2.31-1.5-2.31-2.81a3.19,3.19,0,0,1,1.12-2.42,4.67,4.67,0,0,1,3.32-1,4.32,4.32,0,0,1,3.09.9,2.67,2.67,0,0,1,.92,2v0h-2v0a1,1,0,0,0-.59-.93,3.23,3.23,0,0,0-1.57-.34,2.87,2.87,0,0,0-1.79.49,1.45,1.45,0,0,0-.63,1.2,1.1,1.1,0,0,0,.41.88,3.72,3.72,0,0,0,1.35.61l.94.26.68.2a15.39,15.39,0,0,1,1.77.57,4.29,4.29,0,0,1,.71.44,2.26,2.26,0,0,1,.72.91,3,3,0,0,1,.24,1.24,3.69,3.69,0,0,1-1.19,2.78,4.81,4.81,0,0,1-3.46,1.13,5.82,5.82,0,0,1-2.4-.43,3.8,3.8,0,0,1-1.51-1.18,2.8,2.8,0,0,1-.56-1.75Z"/><path class="cls-7" d="M211.59,78h1.94v0a1.59,1.59,0,0,0,.57,1.25,3,3,0,0,0,1.94.5,3.08,3.08,0,0,0,2-.59,1.72,1.72,0,0,0,.75-1.38c0-.72-.49-1.23-1.46-1.53l-1-.3-.66-.21-1.34-.42c-1.54-.56-2.31-1.5-2.31-2.81a3.19,3.19,0,0,1,1.12-2.42,4.67,4.67,0,0,1,3.32-1,4.32,4.32,0,0,1,3.09.9,2.71,2.71,0,0,1,.92,2v0h-1.95v0a1,1,0,0,0-.59-.93,3.23,3.23,0,0,0-1.57-.34,2.87,2.87,0,0,0-1.79.49,1.45,1.45,0,0,0-.63,1.2,1.1,1.1,0,0,0,.41.88,3.72,3.72,0,0,0,1.35.61l.93.26.69.2a15.39,15.39,0,0,1,1.77.57,4.23,4.23,0,0,1,.7.44,2.21,2.21,0,0,1,.73.91,3,3,0,0,1,.24,1.24,3.69,3.69,0,0,1-1.19,2.78,4.81,4.81,0,0,1-3.46,1.13,5.79,5.79,0,0,1-2.4-.43,3.8,3.8,0,0,1-1.51-1.18,2.8,2.8,0,0,1-.56-1.75Z"/></g></g></svg>