<svg xmlns="http://www.w3.org/2000/svg" viewBox="0 0 87.69 69.24"><defs><style>.cls-1{fill:#faca7d;}</style></defs><g id="圖層_2" data-name="圖層 2"><g id="圖層_1-2" data-name="圖層 1"><path class="cls-1" d="M1.42,53H0L4.82,41.2H6.37L10.82,53H9.17L8,49.73H2.75Zm1.79-4.41H7.49L5.43,43.09Z"/><path class="cls-1" d="M13.58,53H12.17V44.5h1.41V46a4.53,4.53,0,0,1,.87-1,3.11,3.11,0,0,1,.88-.5,3,3,0,0,1,1-.17,3.07,3.07,0,0,1,1.43.33,2.25,2.25,0,0,1,1,.95,4.48,4.48,0,0,1,.35,2V53H17.7V48.18a5.59,5.59,0,0,0-.16-1.62,1.3,1.3,0,0,0-.59-.74,1.78,1.78,0,0,0-.95-.27,2.1,2.1,0,0,0-1.18.37,2.68,2.68,0,0,0-.9,1,4.25,4.25,0,0,0-.34,1.87Z"/><path class="cls-1" d="M26.41,51.77V53a7,7,0,0,1-1.57.25,3.07,3.07,0,0,1-1.43-.32,2.19,2.19,0,0,1-1-.92A4.28,4.28,0,0,1,22.12,50V45.67H20.65V44.5h1.47v-2h1.41v2H26v1.17H23.53v4a5,5,0,0,0,.17,1.56,1.29,1.29,0,0,0,.55.64,1.93,1.93,0,0,0,.9.2A4.88,4.88,0,0,0,26.41,51.77Z"/><path class="cls-1" d="M31.71,53.2a3.91,3.91,0,0,1-2.83-1.13,4.42,4.42,0,0,1-1.17-3.34,4.42,4.42,0,0,1,1.17-3.34,4.11,4.11,0,0,1,5.66,0,4.42,4.42,0,0,1,1.17,3.34,4.42,4.42,0,0,1-1.17,3.34A3.91,3.91,0,0,1,31.71,53.2Zm0-1.17a2.21,2.21,0,0,0,1.84-.91,4.48,4.48,0,0,0,0-4.78,2.21,2.21,0,0,0-1.84-.91,2.18,2.18,0,0,0-1.83.91,4.43,4.43,0,0,0,0,4.78A2.18,2.18,0,0,0,31.71,52Z"/><path class="cls-1" d="M38.94,53H37.53V44.5h1.41V46a4.53,4.53,0,0,1,.87-1,3.11,3.11,0,0,1,.88-.5,3,3,0,0,1,1-.17,3.07,3.07,0,0,1,1.43.33,2.25,2.25,0,0,1,1,.95,4.48,4.48,0,0,1,.35,2V53H43.06V48.18a6,6,0,0,0-.16-1.62,1.3,1.3,0,0,0-.59-.74,1.78,1.78,0,0,0-1-.27,2.08,2.08,0,0,0-1.18.37,2.68,2.68,0,0,0-.9,1,4.25,4.25,0,0,0-.34,1.87Z"/><path class="cls-1" d="M46.59,42.61V41.2H48v1.41Zm0,1.89H48V53H46.59Z"/><path class="cls-1" d="M53.83,53.2A3.91,3.91,0,0,1,51,52.07a4.42,4.42,0,0,1-1.17-3.34A4.42,4.42,0,0,1,51,45.39a4.11,4.11,0,0,1,5.66,0,4.42,4.42,0,0,1,1.17,3.34,4.42,4.42,0,0,1-1.17,3.34A3.91,3.91,0,0,1,53.83,53.2Zm0-1.17a2.18,2.18,0,0,0,1.83-.91,4.43,4.43,0,0,0,0-4.78,2.18,2.18,0,0,0-1.83-.91,2.21,2.21,0,0,0-1.84.91,4.48,4.48,0,0,0,0,4.78A2.21,2.21,0,0,0,53.83,52Z"/><path class="cls-1" d="M2.18,69.24H.76V57.48H2.18v1.46A3.85,3.85,0,0,1,3,57.88a3.22,3.22,0,0,1,.9-.47,3,3,0,0,1,1-.17,3.2,3.2,0,0,1,1.78.53A3.36,3.36,0,0,1,8,59.34a5.9,5.9,0,0,1,.45,2.35,5.3,5.3,0,0,1-.93,3.21,3,3,0,0,1-2.6,1.28,3.11,3.11,0,0,1-1-.16A2.54,2.54,0,0,1,3,65.56a4.12,4.12,0,0,1-.82-1.1Zm0-7.53a4.09,4.09,0,0,0,.62,2.37A2,2,0,0,0,4.55,65a2.11,2.11,0,0,0,1.71-.82A3.73,3.73,0,0,0,7,61.74a3.73,3.73,0,0,0-.73-2.65,2.24,2.24,0,0,0-1.64-.73,2.16,2.16,0,0,0-1.25.4A2.43,2.43,0,0,0,2.47,60,5,5,0,0,0,2.18,61.71Z"/><path class="cls-1" d="M15.45,65.94a4.08,4.08,0,0,1-.22-1.17,4.93,4.93,0,0,1-1.58,1.16,3.48,3.48,0,0,1-1.26.25,2.54,2.54,0,0,1-1.73-.62,2.12,2.12,0,0,1-.72-1.7A2.15,2.15,0,0,1,11,62a10.58,10.58,0,0,1,3.51-1.15l.76-.15v-1a1.17,1.17,0,0,0-.52-1.09,2.41,2.41,0,0,0-1.26-.32,2.15,2.15,0,0,0-1.37.39,1.12,1.12,0,0,0-.49.9v.12H10.05v-.11a1.89,1.89,0,0,1,.48-1.16,3,3,0,0,1,1.25-.9,5.08,5.08,0,0,1,3.41,0,2.36,2.36,0,0,1,1.11.78,3.39,3.39,0,0,1,.35,1.83v3.3c0,.36,0,.74,0,1.13a5.75,5.75,0,0,0,.27,1.38Zm-.22-4.27-.42.1a8.48,8.48,0,0,0-2.74,1,1.39,1.39,0,0,0-.6,1.12,1.18,1.18,0,0,0,.7,1.07,1.58,1.58,0,0,0,.69.16A2.21,2.21,0,0,0,14,64.77a2.31,2.31,0,0,0,.89-.92,2.63,2.63,0,0,0,.32-1.34Z"/><path class="cls-1" d="M20.23,65.94H18.82V57.48h1.41v1.46a4.1,4.1,0,0,1,.87-1,3.11,3.11,0,0,1,.88-.5,3,3,0,0,1,1-.17,3.2,3.2,0,0,1,1.43.32,2.33,2.33,0,0,1,1,1,4.45,4.45,0,0,1,.35,2v5.39H24.34V61.15a6,6,0,0,0-.15-1.61,1.31,1.31,0,0,0-.59-.74,1.78,1.78,0,0,0-1-.27,2.08,2.08,0,0,0-1.18.37,2.68,2.68,0,0,0-.9,1,4.11,4.11,0,0,0-.34,1.87Z"/><path class="cls-1" d="M27.88,55.59V54.18H29.3v1.41Zm0,1.89H29.3v8.46H27.88Z"/><path class="cls-1" d="M32.94,65.94H31.53V57.48h1.41v1.46a4.1,4.1,0,0,1,.87-1,3.11,3.11,0,0,1,.88-.5,3,3,0,0,1,1-.17,3.2,3.2,0,0,1,1.43.32,2.33,2.33,0,0,1,1,1,4.45,4.45,0,0,1,.35,2v5.39H37.06V61.15a5.94,5.94,0,0,0-.16-1.61,1.27,1.27,0,0,0-.59-.74,1.78,1.78,0,0,0-1-.27,2.08,2.08,0,0,0-1.18.37,2.68,2.68,0,0,0-.9,1,4.11,4.11,0,0,0-.34,1.87Z"/><path class="cls-1" d="M40.59,55.59V54.18H42v1.41Zm0,1.89H42v8.46H40.59Z"/><path class="cls-1" d="M50.69,69.24H49.28V57.48h1.41v1.46a3.67,3.67,0,0,1,.84-1.06,3,3,0,0,1,.89-.47,3.07,3.07,0,0,1,1-.17,3.17,3.17,0,0,1,1.77.53,3.38,3.38,0,0,1,1.25,1.57,6.08,6.08,0,0,1,.44,2.35A5.3,5.3,0,0,1,56,64.9a3,3,0,0,1-2.6,1.28,3.11,3.11,0,0,1-1-.16,2.49,2.49,0,0,1-.85-.46,3.91,3.91,0,0,1-.83-1.1Zm0-7.53a4.17,4.17,0,0,0,.62,2.37,2,2,0,0,0,1.75.93,2.14,2.14,0,0,0,1.72-.82,3.79,3.79,0,0,0,.68-2.45,3.79,3.79,0,0,0-.72-2.65,2.24,2.24,0,0,0-1.65-.73,2.11,2.11,0,0,0-1.24.4A2.38,2.38,0,0,0,51,60,5.22,5.22,0,0,0,50.69,61.71Z"/><path class="cls-1" d="M60.16,65.94H58.74V57.48h1.42V59a3.59,3.59,0,0,1,.76-1,3.31,3.31,0,0,1,.88-.55,2.62,2.62,0,0,1,1-.18,2,2,0,0,1,.76.13v1.46a2.42,2.42,0,0,0-1.06-.24,2.25,2.25,0,0,0-1.54.69,3.31,3.31,0,0,0-.75,2.48Z"/><path class="cls-1" d="M70.28,63.77h1.41v.08A1.88,1.88,0,0,1,71.24,65a2.79,2.79,0,0,1-1.18.89,4.49,4.49,0,0,1-1.7.3,3.69,3.69,0,0,1-3-1.25,5.28,5.28,0,0,1,.06-6.4,3.62,3.62,0,0,1,2.86-1.29,3.73,3.73,0,0,1,1.75.41A3,3,0,0,1,71.29,59a5.51,5.51,0,0,1,.45,2.46v.47h-6a3.4,3.4,0,0,0,.74,2.24,2.48,2.48,0,0,0,2,.88,2.11,2.11,0,0,0,1.36-.36,1.06,1.06,0,0,0,.43-.8Zm-4.46-3h4.57v-.16a2.54,2.54,0,0,0-.28-1.16,1.9,1.9,0,0,0-.79-.82,2.41,2.41,0,0,0-1.17-.27A2.07,2.07,0,0,0,66.7,59,3.14,3.14,0,0,0,65.82,60.82Z"/><path class="cls-1" d="M73.16,63.71h1.41v0a1.14,1.14,0,0,0,.42.91A2.17,2.17,0,0,0,76.4,65a2.23,2.23,0,0,0,1.41-.42,1.28,1.28,0,0,0,.55-1c0-.52-.36-.89-1.07-1.11l-.72-.22-.48-.15-1-.3a2.14,2.14,0,0,1-1.68-2A2.33,2.33,0,0,1,74.25,58a3.4,3.4,0,0,1,2.41-.76,3.18,3.18,0,0,1,2.25.65,2,2,0,0,1,.67,1.44v0H78.16v0a.77.77,0,0,0-.43-.68,2.35,2.35,0,0,0-1.14-.24,2.1,2.1,0,0,0-1.3.35,1.08,1.08,0,0,0-.45.87.78.78,0,0,0,.29.64,2.91,2.91,0,0,0,1,.45l.68.19.5.14a12.39,12.39,0,0,1,1.28.41,2.86,2.86,0,0,1,.51.32,1.6,1.6,0,0,1,.53.66,2.13,2.13,0,0,1,.17.9,2.65,2.65,0,0,1-.86,2,3.48,3.48,0,0,1-2.51.82,4.2,4.2,0,0,1-1.74-.31,2.79,2.79,0,0,1-1.1-.86,2.08,2.08,0,0,1-.41-1.27Z"/><path class="cls-1" d="M81.07,63.71h1.41v0a1.14,1.14,0,0,0,.42.91,2.17,2.17,0,0,0,1.41.36,2.23,2.23,0,0,0,1.41-.42,1.25,1.25,0,0,0,.55-1c0-.52-.36-.89-1.07-1.11l-.72-.22L84,62.1l-1-.3a2.14,2.14,0,0,1-1.68-2A2.33,2.33,0,0,1,82.16,58a3.4,3.4,0,0,1,2.41-.76,3.18,3.18,0,0,1,2.25.65,2,2,0,0,1,.67,1.44v0H86.07v0a.77.77,0,0,0-.43-.68,2.35,2.35,0,0,0-1.14-.24,2.1,2.1,0,0,0-1.3.35,1.08,1.08,0,0,0-.45.87.81.81,0,0,0,.29.64,2.91,2.91,0,0,0,1,.45l.68.19.5.14a12.39,12.39,0,0,1,1.28.41,2.86,2.86,0,0,1,.51.32,1.6,1.6,0,0,1,.53.66,2.13,2.13,0,0,1,.17.9,2.65,2.65,0,0,1-.86,2,3.48,3.48,0,0,1-2.51.82,4.2,4.2,0,0,1-1.74-.31,2.79,2.79,0,0,1-1.1-.86,2.08,2.08,0,0,1-.41-1.27Z"/><path class="cls-1" d="M21.52,31.22a6.82,6.82,0,0,1-5.14-1.95,6.72,6.72,0,0,1-1.77-4.66V6.38a2.31,2.31,0,0,0-2.31-2.3H7a2.31,2.31,0,0,0-2.31,2.3V21.64A2.32,2.32,0,0,0,7,24h3.37a2,2,0,0,1,0,3.9H7A6.22,6.22,0,0,1,.77,21.64V6.38A6.21,6.21,0,0,1,7,.18H12.3a6.21,6.21,0,0,1,6.21,6.2V24.69a2.87,2.87,0,0,0,.7,1.89,3.14,3.14,0,0,0,2.31.73,2,2,0,1,1,0,3.91Z"/><path class="cls-1" d="M27.55,40.26a2,2,0,0,1-1.95-1.95V6.21A6.22,6.22,0,0,1,31.81,0h6.56a6.21,6.21,0,0,1,6.21,6.21V21.46a6.21,6.21,0,0,1-6.21,6.21H33.94a2,2,0,1,1,0-3.9h4.43a2.31,2.31,0,0,0,2.31-2.31V6.21A2.31,2.31,0,0,0,38.37,3.9H31.81a2.31,2.31,0,0,0-2.3,2.31v32.1A2,2,0,0,1,27.55,40.26Z"/></g></g></svg>