<svg xmlns="http://www.w3.org/2000/svg" viewBox="0 0 61.46 80.67"><defs><style>.cls-1{fill:#ec73a8;}</style></defs><g id="圖層_2" data-name="圖層 2"><g id="圖層_1-2" data-name="圖層 1"><path class="cls-1" d="M7.18,73h0c-1.08-.65-1-2.85.26-4.89L46,4.11c1.23-2,3.12-3.17,4.2-2.52h0c1.09.66,1,2.86-.26,4.89l-38.54,64C10.15,72.54,8.26,73.68,7.18,73Z"/><path class="cls-1" d="M.78,66.49h0c-1.08-.66-1-2.74.1-4.63L36.65,2.45c1.14-1.89,3-2.9,4-2.25h0c1.09.65,1,2.73-.1,4.62L4.82,64.24C3.69,66.13,1.87,67.14.78,66.49Z"/><path class="cls-1" d="M15.84,80.67a2.74,2.74,0,0,1-2.18-1.07,2.77,2.77,0,0,1-.21-3.08L54.92,5.09a2.77,2.77,0,0,1,5.16,1.33l1.38,59.44a2.76,2.76,0,0,1-2,2.73l-42.85,12A2.76,2.76,0,0,1,15.84,80.67ZM54.78,16.36,21.65,73.41l34.23-9.57Z"/><path class="cls-1" d="M36.17,75A2.76,2.76,0,0,1,34,74l-9.9-12.27a2.76,2.76,0,0,1,4.3-3.47l9.9,12.27A2.76,2.76,0,0,1,36.17,75Z"/><path class="cls-1" d="M47.41,71.85a2.76,2.76,0,0,1-2.15-1L30.08,52a2.76,2.76,0,1,1,4.29-3.47L49.56,67.34a2.76,2.76,0,0,1-.41,3.89A2.73,2.73,0,0,1,47.41,71.85Z"/><path class="cls-1" d="M58.7,68.69a2.77,2.77,0,0,1-2.15-1L36,42.4a2.77,2.77,0,0,1,4.29-3.49L60.84,64.18a2.76,2.76,0,0,1-2.14,4.51Z"/><path class="cls-1" d="M58.3,51.65a2.77,2.77,0,0,1-2.17-1L42,32.72a2.77,2.77,0,1,1,4.33-3.44L60.47,47.17a2.77,2.77,0,0,1-2.17,4.48Z"/><path class="cls-1" d="M57.89,33.75a2.79,2.79,0,0,1-2.16-1L48,23.09a2.77,2.77,0,0,1,4.3-3.48L60,29.25a2.76,2.76,0,0,1-2.15,4.5Z"/></g></g></svg>